<svg width="70" height="70" viewBox="0 0 70 70" fill="none" xmlns="http://www.w3.org/2000/svg">
<path d="M68.4351 35.6744L68.0912 37.7825L63.9899 41.061L67.464 41.6277L67.1614 43.4832L61.6423 42.583L61.945 40.7275L66.2678 37.2338L62.6121 36.6375L62.916 34.7741L68.4351 35.6744Z" fill="black"/>
<path d="M66.262 46.5473L63.2734 52.2609L62.1463 51.6713L64.2598 47.6307L63.5226 47.2451L61.461 51.1865L60.3268 50.5932L62.3883 46.6518L61.5731 46.2254L59.4226 50.337L58.2671 49.7326L61.2927 43.9481L66.262 46.5473Z" fill="black"/>
<path d="M54.707 54.1797L56.2658 52.8026L61.7791 55.2973L60.2383 56.6586L56.5592 54.8384L57.6447 57.7224L55.8221 59.3326L53.0842 58.0581L54.3869 61.8283L52.996 63.0571L51.1697 57.3048L52.5966 56.0442L55.7223 57.6488L55.9621 57.4369L54.707 54.1797Z" fill="black"/>
<path d="M44.0738 66.9107L41.9583 67.206L37.6131 64.2583L38.0997 67.7445L36.2377 68.0044L35.4647 62.4661L37.3267 62.2062L41.9429 65.3018L41.4309 61.6334L43.3008 61.3724L44.0738 66.9107Z" fill="black"/>
<path d="M32.988 68.0465L26.6452 66.8869L26.8739 65.6357L31.3596 66.4557L31.5092 65.6373L27.1337 64.8374L27.3639 63.5782L31.7394 64.3782L31.9049 63.4732L27.3405 62.6387L27.575 61.356L33.9966 62.53L32.988 68.0465Z" fill="black"/>
<path d="M22.3038 59.2807L24.0789 60.3649L23.3182 66.3684L21.5635 65.2967L22.2197 61.2448L19.7832 63.1314L17.7077 61.8637L18.1196 58.8718L14.9001 61.2269L13.3162 60.2595L18.2757 56.8205L19.9006 57.8129L19.2875 61.2725L19.5606 61.4393L22.3038 59.2807Z" fill="black"/>
<path d="M7.02872 52.9262L6.11674 50.9947L7.63634 45.9688L4.45331 47.4717L3.65062 45.7716L8.70731 43.3841L9.50999 45.0841L7.92989 50.4129L11.2793 48.8314L12.0854 50.5387L7.02872 52.9262Z" fill="black"/>
<path d="M2.68142 42.8427L1.88829 36.4437L3.15063 36.2872L3.71153 40.8126L4.53721 40.7102L3.99009 36.296L5.26037 36.1386L5.80749 40.5528L6.72051 40.4396L6.14977 35.8349L7.44386 35.6745L8.24684 42.1529L2.68142 42.8427Z" fill="black"/>
<path d="M7.8309 29.9183L7.32507 31.9359L1.36768 32.999L1.86767 31.0048L5.93102 30.4235L3.40402 28.66L3.99545 26.301L6.97413 25.8024L3.76649 23.4312L4.21785 21.6309L8.97875 25.34L8.51572 27.1869L5.03067 27.6327L4.95285 27.9431L7.8309 29.9183Z" fill="black"/>
<path d="M9.31622 13.4512L10.891 12.0081L16.1415 11.9711L13.7634 9.37594L15.1494 8.10579L18.9274 12.2285L17.5414 13.4987L11.9837 13.5676L14.4862 16.2984L13.0942 17.574L9.31622 13.4512Z" fill="black"/>
<path d="M17.8133 6.18661L23.6942 3.54253L24.2158 4.70266L20.0568 6.57255L20.398 7.33138L24.4548 5.50742L24.9797 6.67486L20.9229 8.49882L21.3001 9.33791L25.5321 7.43522L26.0668 8.62454L20.1129 11.3014L17.8133 6.18661Z" fill="black"/>
<path d="M31.3918 7.34629L29.3153 7.46661L26.5201 2.0993L28.5727 1.98037L30.3419 5.68424L31.2695 2.74566L33.6974 2.60498L35.0635 5.29847L36.3676 1.52873L38.2205 1.42137L36.1039 7.07326L34.2031 7.1834L32.736 3.99092L32.4165 4.00943L31.3918 7.34629Z" fill="black"/>
<path d="M47.7874 3.85675L49.6305 4.93639L51.213 9.94287L52.9922 6.90562L54.6143 7.85586L51.7879 12.681L50.1657 11.7307L48.4622 6.44011L46.59 9.63613L44.961 8.68184L47.7874 3.85675Z" fill="black"/>
<path d="M57.2005 9.80652L61.4698 14.6388L60.5165 15.4809L57.4973 12.0636L56.8738 12.6145L59.8188 15.9479L58.8596 16.7954L55.9146 13.462L55.2251 14.0711L58.2972 17.5484L57.32 18.4118L52.9978 13.5196L57.2005 9.80652Z" fill="black"/>
<path d="M60.1843 23.2273L59.4536 21.2799L63.7505 17.0188L64.4728 18.9437L61.4602 21.7318L64.5417 21.7461L65.396 24.0231L63.2288 26.1265L67.2158 26.254L67.8678 27.9917L61.8424 27.6465L61.1736 25.8638L63.7873 23.5159L63.6749 23.2163L60.1843 23.2273Z" fill="black"/>
</svg>
