<svg width="15" height="15" viewBox="0 0 15 15" fill="none" xmlns="http://www.w3.org/2000/svg">
<path d="M11.8338 5.91691C11.8338 9.18473 9.18473 11.8338 5.91691 11.8338C2.64909 11.8338 0 9.18473 0 5.91691C0 2.64909 2.64909 0 5.91691 0C9.18473 0 11.8338 2.64909 11.8338 5.91691ZM1.45636 5.91691C1.45636 8.3804 3.45342 10.3775 5.91691 10.3775C8.3804 10.3775 10.3775 8.3804 10.3775 5.91691C10.3775 3.45342 8.3804 1.45636 5.91691 1.45636C3.45342 1.45636 1.45636 3.45342 1.45636 5.91691Z" fill="black"/>
<path d="M10.201 9.03933L14.9503 12.7106L13.6325 14.155L9.54209 9.76155L10.201 9.03933Z" fill="black"/>
</svg>
