<svg width="20" height="17" viewBox="0 0 20 17" fill="none" xmlns="http://www.w3.org/2000/svg">
<path fill-rule="evenodd" clip-rule="evenodd" d="M3 1.6755H17C17.2652 1.6755 17.5196 1.76376 17.7071 1.92087C17.8946 2.07798 18 2.29106 18 2.51325V14.2418C18 14.4639 17.8946 14.677 17.7071 14.8341C17.5196 14.9912 17.2652 15.0795 17 15.0795H3C2.73478 15.0795 2.48043 14.9912 2.29289 14.8341C2.10536 14.677 2 14.4639 2 14.2418V2.51325C2 2.29106 2.10536 2.07798 2.29289 1.92087C2.48043 1.76376 2.73478 1.6755 3 1.6755ZM0 2.51325C0 1.84669 0.316071 1.20744 0.87868 0.736114C1.44129 0.264788 2.20435 0 3 0H17C17.7956 0 18.5587 0.264788 19.1213 0.736114C19.6839 1.20744 20 1.84669 20 2.51325V14.2418C20 14.9083 19.6839 15.5476 19.1213 16.0189C18.5587 16.4902 17.7956 16.755 17 16.755H3C2.20435 16.755 1.44129 16.4902 0.87868 16.0189C0.316071 15.5476 0 14.9083 0 14.2418V2.51325ZM10 8.3775C7.239 8.3775 5 6.1273 5 3.351H7C7 5.50067 8.67 6.702 10 6.702C11.33 6.702 13 5.50067 13 3.351H15C15 6.1273 12.761 8.3775 10 8.3775Z" fill="black"/>
</svg>
